<?xml version="1.0" encoding="UTF-8" standalone="no"?>
<!-- Created with Inkscape (http://www.inkscape.org/) -->

<svg
   xmlns:dc="http://purl.org/dc/elements/1.1/"
   xmlns:cc="http://creativecommons.org/ns#"
   xmlns:rdf="http://www.w3.org/1999/02/22-rdf-syntax-ns#"
   xmlns:svg="http://www.w3.org/2000/svg"
   xmlns="http://www.w3.org/2000/svg"
   xmlns:xlink="http://www.w3.org/1999/xlink"
   xmlns:sodipodi="http://sodipodi.sourceforge.net/DTD/sodipodi-0.dtd"
   xmlns:inkscape="http://www.inkscape.org/namespaces/inkscape"
   version="1.1"
   width="500"
   height="400"
   id="svg2"
   inkscape:version="0.91 r13725"
   sodipodi:docname="pyrates.svg"
   inkscape:export-filename="/Users/david/Downloads/pyrates.png"
   inkscape:export-xdpi="90"
   inkscape:export-ydpi="90">
  <metadata
     id="metadata13">
    <rdf:RDF>
      <cc:Work
         rdf:about="">
        <dc:format>image/svg+xml</dc:format>
        <dc:type
           rdf:resource="http://purl.org/dc/dcmitype/StillImage" />
      </cc:Work>
    </rdf:RDF>
  </metadata>
  <sodipodi:namedview
     pagecolor="#ffffff"
     bordercolor="#666666"
     borderopacity="1"
     objecttolerance="10"
     gridtolerance="10"
     guidetolerance="10"
     inkscape:pageopacity="0"
     inkscape:pageshadow="2"
     inkscape:window-width="1560"
     inkscape:window-height="1010"
     id="namedview11"
     showgrid="false"
     inkscape:zoom="1.18"
     inkscape:cx="232.86803"
     inkscape:cy="215.74461"
     inkscape:window-x="185"
     inkscape:window-y="26"
     inkscape:window-maximized="0"
     inkscape:current-layer="svg2" />
  <defs
     id="defs4">
    <radialGradient
       cx="15.115"
       cy="63.965"
       r="12.289"
       fx="15.115"
       fy="63.965"
       id="rg1"
       xlink:href="#lg4"
       gradientUnits="userSpaceOnUse"
       gradientTransform="matrix(3.4884402,0,0,1.21533,158.10262,64.494955)" />
    <linearGradient
       id="lg4">
      <stop
         stop-color="#000"
         offset="0"
         id="stop22" />
      <stop
         stop-color="#000"
         stop-opacity="0"
         offset="1"
         id="stop24" />
    </linearGradient>
    <linearGradient
       x1="119.191"
       y1="89.129997"
       x2="116.965"
       y2="169.27901"
       id="lg8"
       xlink:href="#lg3"
       gradientUnits="userSpaceOnUse"
       gradientTransform="matrix(0.77155139,0,0,0.77947518,122.76967,14.202024)" />
    <linearGradient
       id="lg3">
      <stop
         stop-color="#ffe253"
         offset="0"
         id="stop17" />
      <stop
         stop-color="#ffca1c"
         offset="1"
         id="stop19" />
    </linearGradient>
    <linearGradient
       x1="94.693001"
       y1="112.511"
       x2="94.693001"
       y2="64.053001"
       id="lg7"
       xlink:href="#lg2"
       gradientUnits="userSpaceOnUse"
       gradientTransform="matrix(0.77155139,0,0,0.77947518,144.7746,36.342411)" />
    <linearGradient
       id="lg2">
      <stop
         stop-color="#fff"
         offset="0"
         id="stop12" />
      <stop
         stop-color="#fff"
         stop-opacity="0.165"
         offset="1"
         id="stop14" />
    </linearGradient>
    <linearGradient
       x1="59.728001"
       y1="102"
       x2="142.62"
       y2="102"
       id="lg6"
       xlink:href="#lg1"
       gradientUnits="userSpaceOnUse"
       gradientTransform="matrix(0.77155139,0,0,0.77947518,120.61163,11.085251)" />
    <linearGradient
       id="lg1">
      <stop
         stop-color="#3778ae"
         offset="0"
         id="stop7" />
      <stop
         stop-color="#366c99"
         offset="1"
         id="stop9" />
    </linearGradient>
    <linearGradient
       x1="94.693001"
       y1="112.511"
       x2="94.693001"
       y2="64.053001"
       id="lg5"
       xlink:href="#lg2"
       gradientUnits="userSpaceOnUse"
       gradientTransform="matrix(0.77155139,0,0,0.77947518,120.61163,11.085251)" />
  </defs>
  <path
     inkscape:connector-curvature="0"
     style="fill:#f5a65f;fill-opacity:1;stroke:none"
     id="path3658"
     d="m 376.41141,228.27983 a 118.92342,117.09963 0 0 1 -237.84683,0 118.92342,117.09963 0 1 1 237.84683,0 z" />
  <path
     inkscape:connector-curvature="0"
     style="fill:#000000;stroke:none"
     id="path3644"
     d="m 260.67222,55.948623 c -28.72749,0.346218 -59.46519,5.988534 -95.74908,26.176097 -22.05578,11.368691 -38.58927,26.4427 -44.76519,48.47252 -3.89686,20.0132 -6.55599,40.27415 -12.05764,59.97131 -8.287837,8.01791 -24.66457,17.518 -35.081102,22.9742 -2.920671,1.52985 -4.833319,3.60808 -6.171235,4.93139 -5.185699,5.41349 -6.039781,13.99398 -4.201187,24.56346 12.762052,40.87994 21.935359,52.87838 30.784969,62.23834 4.473255,4.15683 10.171955,6.4332 19.676745,2.80459 l 34.17915,-20.02939 c 1.68156,-0.98558 1.99066,-0.37715 2.44475,0.39731 l 2.44476,3.43561 c 26.85589,53.04251 95.56029,75.6279 157.27156,50.36562 64.04008,-26.21561 96.33839,-94.03301 72.29839,-151.63439 l 37.7632,-10.75089 c 9.49908,-3.05893 20.20919,-2.88448 22.35886,-25.24124 -0.5495,-8.7154 -3.14759,-17.48008 -8.16501,-24.91403 -13.60053,-20.15096 -34.87538,-38.090315 -38.61769,-41.858389 -8.63731,3.436102 -14.64614,9.364423 -32.13789,4.417216 C 335.72657,78.442927 330.75863,59.059558 260.67222,55.948623 Z m 57.55864,120.293187 c 13.44879,-0.16946 25.14242,1.33036 37.45465,2.24367 6.02734,0.4471 6.72102,3.86635 8.78214,6.96471 4.63312,9.07456 8.4637,18.77787 10.79966,29.61171 0.45262,4.89513 0.15272,9.73266 0.11868,14.65394 -0.68212,1.09683 -1.65908,1.86772 -2.872,1.636 -14.33722,-3.24789 -25.75173,-6.06842 -36.29161,-9.13826 -15.90982,-5.56517 -25.87899,-18.95224 -66.45945,-18.44013 -9.95124,-1.55502 -19.91582,-2.67009 -29.69314,-7.47888 -4.61195,-1.41104 0.0221,-2.56319 1.47161,-4.1835 28.94319,-9.96769 44.00678,-12.8405 50.08195,-13.27503 9.83311,-1.7969 18.53823,-2.49256 26.60751,-2.59423 z m -89.67279,23.25465 c 1.98399,0.01 4.2814,0.17308 7.02571,0.53755 5.0717,1.87806 9.91492,4.52086 15.21447,5.63254 4.22822,0.88695 8.17291,1.52592 16.51992,6.12333 -3.98485,21.96237 -0.044,35.26323 19.53433,41.41433 19.57838,6.1511 33.32255,-13.27655 34.93869,-16.21983 0.8339,-1.51868 5.64363,-8.68993 8.04634,-9.02141 7.50587,-1.7504 26.31547,3.90722 39.47217,5.86625 3.80347,0.25875 4.98064,2.1885 6.24244,4.06665 -0.2776,11.21406 -5.69798,29.292 -13.05454,43.26067 -11.34489,22.31288 -28.62316,40.44066 -59.83724,52.42231 -39.76313,12.91325 -79.47528,9.74201 -108.59,-10.84438 -7.05149,-4.98596 -13.7873,-11.33265 -20.6499,-18.27652 -9.32901,-9.43949 -16.98326,-20.65426 -21.62306,-35.47797 -2.64533,-8.23356 5.57367,-19.57586 24.35264,-34.47298 17.38796,-15.12896 38.9657,-29.39576 47.51851,-34.65996 1.40246,-0.21781 2.99998,-0.35994 4.88952,-0.35058 z m 2.65837,20.05277 c -5.76878,0.1959 -8.99128,4.85673 -8.94829,13.71908 0.0338,6.96891 0.99181,13.0089 7.88019,13.11142 6.88839,0.10252 8.14129,-9.1982 8.14129,-13.74246 0.2429,-8.19487 -1.3044,-13.28395 -7.07319,-13.08804 z" />
  <path
     inkscape:connector-curvature="0"
     style="opacity:0.5;fill:#000000;stroke:none"
     id="path3649"
     d="m 186.82425,242.37652 c -1.74664,-8.9673 19.29996,-25.03379 35.55551,-39.74752 2.47672,-2.24179 7.81958,-0.49723 9.40634,0.0827 5.0717,1.87805 9.91554,4.52247 15.21509,5.63416 4.22823,0.88695 8.17568,1.52095 16.52268,6.11836 -3.98485,21.96236 -0.0475,35.24988 19.53095,41.40098 19.57839,6.1511 33.32264,-13.26904 34.93878,-16.21233 0.83389,-1.51867 5.51807,-8.16323 7.92079,-8.4947 2.12831,-0.49634 5.36301,-1.16075 8.7508,0.0465 3.47362,1.23796 8.4726,2.48107 14.29936,3.19871 5.51356,0.67906 11.71483,1.26151 16.55424,2.63094 4.58622,0.312 10.90973,3.1937 12.61373,5.34206 l -0.40689,-11.21833 -5.08618,1.13518 c -0.3944,2.07682 -2.40833,1.11655 -4.40802,0.73453 -14.33722,-3.24788 -25.26686,-5.07679 -35.80673,-8.14663 -15.90982,-5.56516 -25.879,-18.94223 -66.45946,-18.43011 -9.95123,-1.55503 -19.92598,-2.67009 -29.7033,-7.47889 -5.07463,-1.5526 1.0848,-2.77708 1.83102,-4.6743 l -52.82848,16.29328 -44.90686,57.68803 c 33.49142,56.93464 68.15336,71.80016 103.07767,77.23628 l 30.16451,-0.99353 c -9.0029,-2.70124 -10.40496,2.24158 -40.36414,-19.93822 -3.79824,-2.81197 -2.73998,-1.7091 -12.04145,-12.16043 -9.30147,-10.45133 -29.02265,-40.91397 -34.36996,-70.04687 l 0,3e-5 z" />
  <path
     inkscape:connector-curvature="0"
     style="fill:#ffffff;stroke:none"
     id="path2827"
     d="m 239.09087,171.16061 c -22.44078,9.83181 -48.72692,-0.11075 -58.71186,-22.20739 -9.98484,-22.09645 0.11249,-47.97965 22.55327,-57.811456 22.44079,-9.831809 48.727,0.110949 58.71185,22.207396 9.98503,22.09682 -0.11247,47.97964 -22.55326,57.81145 z" />
  <g
     id="g3481"
     transform="matrix(0.75324607,-0.34901181,0.35982302,0.75294278,24.99,126.86808)">
    <path
       id="path33"
       d="m 232.80837,136.61852 c 0,6.01747 -5.16943,9.0653 -10.41604,10.58536 -7.89304,2.29165 -14.22739,1.94077 -20.82403,0 -5.50912,-1.62161 -10.41605,-4.93442 -10.41605,-10.58536 l 0,-19.85307 c 0,-5.71372 4.71398,-10.59306 10.41605,-10.59306 l 20.4911,-1.34605 c 6.93632,0 11.46955,-4.37406 11.46955,-11.552987 l 1.88703,-9.596808 7.80822,0 c 6.06422,0 8.91929,4.55225 10.41605,10.585144 2.08325,8.379601 2.17547,14.646631 0,21.178641 -2.10637,6.34478 -4.36055,10.58513 -10.41605,10.58513 l -10.41583,0 -20.82424,0 0,-0.044 c 17.9707,0.044 20.82424,-7.30493 20.82424,10.63469 z"
       style="fill:url(#lg8)"
       inkscape:connector-curvature="0" />
    <path
       id="path35"
       d="m 219.79213,137.93594 c 0,-2.19033 1.75141,-3.96766 3.904,-3.96766 2.18027,0 3.904,1.77733 3.904,3.96766 0,2.19804 -1.74357,3.97515 -3.904,3.97515 -2.15259,0 -3.904,-1.77711 -3.904,-3.97515 z"
       style="fill:#ffffff"
       inkscape:connector-curvature="0" />
    <path
       id="path37"
       d="m 235.39374,83.675443 0,9.309581 c -7.43713,13.209166 -21.56554,13.234946 -33.41751,13.234946 l -4.39762,0.45198 c -6.17933,5.36658 -6.37599,13.97878 -6.37141,21.53239 13.62715,-15.36184 28.16348,-16.52088 35.41551,-16.48784 14.47201,0.0639 21.28777,-3.53065 28.19946,-11.44043 -0.0349,-0.15419 0.0349,-0.290752 0,-0.448683 -0.26643,-1.762133 -0.73301,-3.644091 -1.22117,-5.607989 -0.70161,-2.828003 -1.61951,-5.317468 -3.10842,-7.17828 -0.0349,-0.03524 -0.0829,-0.07489 -0.11119,-0.110134 0,0 -0.0916,0 -0.10902,0 -0.0501,-0.06167 -0.061,-0.1652 -0.10901,-0.222689 -0.10247,-0.07489 -0.11337,-0.154187 -0.22021,-0.22247 -0.0349,-0.03524 -0.085,0.03524 -0.10901,0 -1.57874,-1.033711 -3.49629,-1.805085 -5.44022,-2.1313 -1.76188,-0.294276 -3.5303,-0.518507 -5.32903,-0.672914 l -1.1102,0 -2.55332,0 z"
       style="opacity:0.83699999;fill:url(#lg7)"
       inkscape:connector-curvature="0" />
    <path
       id="path39"
       d="m 233.85185,136.61742 c 0,6.01769 -6.21313,9.06618 -11.45952,10.58602 -7.8926,2.29077 -14.2263,1.94055 -20.82381,0 -5.50956,-1.62117 -10.4675,-4.93398 -10.47622,-10.58381 l -0.0349,-20.39229 c -0.0218,-6.76879 5.01899,-11.03536 10.57216,-11.01333 l 18.45973,0.033 c 7.08589,0 13.97556,-7.268802 13.95594,-14.427478 l 0,-7.130032 9.17896,0 c 6.06422,0 8.91732,4.552912 10.41517,10.586026 2.08435,8.378944 2.18028,14.645534 0,21.178634 -2.10614,6.34368 -4.36055,11.33845 -10.41517,11.33933 l -9.37518,0 -21.86816,0 0,-0.044 21.86816,0.0749 z"
       style="fill:none;stroke:#bb9400;stroke-width:3.57205081"
       inkscape:connector-curvature="0" />
    <path
       id="path41"
       d="m 235.82783,85.470176 0,5.271641 c 0,8.203842 -7.62333,16.246223 -16.31042,16.246223 l -17.9853,0 c -6.2151,0 -8.76122,4.75093 -8.73026,9.77521 l 0.12209,19.85241 c 0.0218,2.30091 0.87211,4.01656 2.50296,5.49587 1.63085,1.47909 4.08278,2.60576 6.6614,3.36502 6.35855,1.8705 12.15721,2.20751 19.76157,0 2.4696,-0.71543 5.75462,-2.07073 7.40771,-3.51634 1.65286,-1.44605 2.85114,-2.85488 2.85114,-5.34455 l 0,-7.99524 -21.91612,0 0,-3.69938 33.08414,0.11014 c 2.61808,0 3.89834,-1.04054 5.19865,-2.56236 1.30032,-1.52205 2.43079,-4.50864 3.46097,-7.61242 2.06167,-6.18861 2.03551,-12.00255 0,-20.1892 -0.70902,-2.85862 -1.73899,-5.167686 -3.10842,-6.729597 -1.36921,-1.561911 -2.95863,-2.467427 -5.5512,-2.467427 z m 3.55254,3.589025 3.8955,0 c 1.13418,0 2.61481,0.923798 2.88669,1.233933 0.79035,0.901563 1.70061,2.728234 2.33158,5.271433 1.93936,7.800963 1.94372,12.668633 0.10902,18.170013 -0.98483,2.96699 -2.00695,5.75821 -2.77528,6.608 -0.6942,0.74781 -2.18027,1.12182 -2.55375,1.12182 l -10.43589,-0.11234 -26.20102,0 0,10.87765 21.91613,0 0,4.40533 c 0,1.60134 -2.12207,2.59673 -2.48726,2.91611 -1.06223,0.92931 -2.94512,1.84121 -5.10686,2.46743 -7.02703,2.04055 -11.99151,1.73108 -17.87477,0 -2.22628,-0.65529 -4.15582,-1.61654 -5.2477,-2.55399 -1.09188,-0.93746 -1.15904,-1.70509 -1.36006,-2.83043 l -0.12209,-19.85241 c -0.0284,-4.45467 1.4078,-6.18597 5.17772,-6.18597 l 17.9853,0 c 10.73415,0 19.86296,-9.58204 19.86296,-19.83546 2.2e-4,-0.566966 -2.2e-4,-1.134153 -2.2e-4,-1.701119 z"
       style="opacity:0.38399999;fill:#ffffff"
       inkscape:connector-curvature="0" />
    <path
       id="path43"
       d="m 188.99422,69.966708 c 0,-6.017464 1.59683,-9.291287 10.41561,-10.850334 5.98747,-1.060144 13.66444,-1.192524 20.82446,0 5.65541,0.943182 10.41605,5.199174 10.41605,10.850334 l 0,19.853514 c 0,5.822539 -4.62175,10.592858 -10.41605,10.592858 l -18.88576,1.05463 c -7.06715,0 -14.36583,6.23817 -14.36583,13.12129 l -0.59653,8.31947 -7.16002,0 c -6.05659,0 -9.58253,-4.41172 -11.06381,-10.58514 -1.99844,-8.29326 -1.91341,-13.235378 0,-21.177973 1.65876,-6.92982 6.95944,-10.585585 12.42757,-10.585585 l 7.81585,0 c 0,0 19.50213,-0.07709 0,-0.07049 l 0,-10.522357 0,0 z"
       style="fill:url(#lg6)"
       inkscape:connector-curvature="0" />
    <path
       id="path45"
       d="m 194.20202,68.649294 c 0,-2.202667 1.74422,-3.975373 3.904,-3.975373 2.15259,0 3.90422,1.777112 3.90422,3.975373 0,2.190331 -1.75163,3.967442 -3.90422,3.967442 -2.16021,0 -3.904,-1.777111 -3.904,-3.967442 z"
       style="fill:#ffffff"
       inkscape:connector-curvature="0" />
    <path
       id="path47"
       d="m 208.03369,58.238832 c -3.0816,0.07533 -6.04024,0.433484 -8.65962,0.897146 -8.81878,1.559047 -10.32469,4.862165 -10.32469,10.87963 l -0.64362,10.544164 -7.23917,-6.61e-4 c -6.05658,0 -11.33045,3.613694 -12.9892,10.542853 -1.12612,4.67516 -1.63608,8.335331 -1.44356,12.225676 13.71916,-15.709204 28.43994,-16.857233 35.74888,-16.823973 14.47179,0.06388 21.28755,-3.530654 28.19924,-11.440429 l 0,-5.04719 c 0,-5.65094 -4.78047,-9.936228 -10.43589,-10.87941 -4.0274,-0.671372 -8.25038,-0.994724 -12.21237,-0.897806 z"
       style="opacity:0.37700004;fill:url(#lg5)"
       inkscape:connector-curvature="0" />
    <path
       id="path49"
       d="m 199.26615,59.630036 c 7.89281,-2.291655 14.22738,-1.94077 20.8238,0 5.50912,1.621382 10.41889,4.933972 10.41605,10.585354 l 0,21.435259 c 0,3.009282 -4.30517,9.976541 -10.40558,9.976541 l -19.40183,0 c -5.44698,0 -13.07511,5.99499 -13.07511,13.17414 l 0,8.35626 -9.17896,0 c -6.06444,0 -8.91929,-4.55225 -10.41605,-10.58558 -2.08325,-8.37916 -2.18027,-14.646185 0,-21.178192 2.10637,-6.345012 4.36055,-11.338677 10.41605,-11.338677 l 9.37191,0 21.86816,0 0,0.04185 -21.86816,-0.07489 0.0414,-10.734254 c -0.0567,-4.397624 5.26449,-7.824752 11.40785,-9.657591 z"
       style="fill:none;stroke:#274e70;stroke-width:3.57205081"
       inkscape:connector-curvature="0" />
    <path
       id="path51"
       d="m 185.83064,121.36352 0,-6.15866 c 0,-8.20405 7.40269,-15.48188 15.36243,-15.48188 l 18.9333,0 c 4.69827,0 8.77342,-4.936395 8.73025,-9.652315 l -0.18183,-19.852632 c -0.0218,-2.300685 -0.8115,-4.016562 -2.44256,-5.495873 -1.63063,-1.479311 -4.08279,-2.605975 -6.66118,-3.364793 -6.35899,-1.870945 -12.15765,-2.207733 -19.7618,0 -2.46938,0.715426 -5.75505,2.070506 -7.4077,3.516336 -1.65308,1.44583 -2.85093,2.854656 -2.85093,5.34433 l 0,7.995238 21.91591,0 0,3.701361 -33.08415,-0.112336 c -2.61633,0 -3.89833,1.040539 -5.19865,2.562582 -1.30031,1.521602 -2.43078,4.508197 -3.46096,7.612206 -2.06167,6.188611 -2.03529,12.002326 0,20.188976 0.70902,2.85862 1.73898,5.16768 3.10863,6.72959 1.36921,1.56213 2.95864,2.46765 5.55098,2.46765 l 7.44826,0 z m -3.55276,-3.58925 -3.8955,0 c -1.13374,0 -2.61633,-0.9238 -2.88646,-1.23349 -0.79057,-0.90177 -1.70084,-2.72866 -2.33181,-5.27186 -1.93935,-7.80075 -1.9435,-12.668198 -0.1101,-18.170018 0.98483,-2.966562 2.00694,-5.758001 2.77549,-6.585764 0.6942,-0.747364 2.16043,-1.121597 2.55354,-1.121597 l 36.6369,0.112336 0,-10.879851 -21.9159,0 0,-4.405332 c 0,-1.601339 2.12184,-2.596724 2.48704,-2.916111 1.06244,-0.929304 2.94533,-1.841208 5.10707,-2.466986 7.02681,-2.04011 11.99151,-1.730855 17.87455,0 2.2265,0.655293 4.15582,1.616537 5.21784,2.579763 0.37784,0.2978 0.5769,0.654853 0.88911,1.009262 0.43322,0.522032 0.33838,1.211973 0.43846,1.794512 l 0,19.852632 c 0,2.721846 -2.30347,6.063291 -4.99567,6.063291 l -18.93329,0 c -10.00681,0 -18.91519,8.817053 -18.91519,19.070903 0,0.85354 0,2.56831 0,2.56831 z"
       style="opacity:0.16499999;fill:#ffffff"
       inkscape:connector-curvature="0" />
  </g>
</svg>
